<svg width="32" height="32" viewBox="0 0 32 32" fill="none" xmlns="http://www.w3.org/2000/svg">
  <path
    d="M14.3883 0.216989C15.8506 -0.186391 17.4111 -0.0234673 18.7585 0.673235C20.1059 1.36994 21.141 2.54916 21.6571 3.97551C22.4118 6.05254 21.8657 8.52677 20.3497 10.1239C19.8399 10.6832 19.1399 11.0076 18.5805 11.5041C18.2015 11.8153 18.3372 12.4855 18.7791 12.6626C19.0786 12.8281 19.4212 12.6908 19.734 12.6428C21.3543 12.2671 22.9679 11.8583 24.5898 11.4843C25.0931 11.3722 25.6197 11.4388 26.0793 11.6725C26.5389 11.9062 26.9028 12.2925 27.1087 12.7652C27.3172 13.3875 27.4397 14.0346 27.5936 14.6751C27.8452 15.7608 27.1402 16.969 26.0545 17.2487C24.4127 17.6806 22.7445 18.0397 21.1077 18.4651C20.5301 18.6074 19.9723 19.0278 19.8763 19.6484C19.7506 20.2078 20.0749 20.7341 20.4092 21.1561C22.0808 23.237 23.7524 25.3174 25.4239 27.3972C25.67 27.6934 25.8357 28.048 25.905 28.4269C25.9743 28.8058 25.9448 29.1961 25.8195 29.5602C25.5298 30.4391 24.661 30.8843 23.999 31.4685C23.1284 32.248 21.6422 32.1636 20.8925 31.2583C19.5586 29.6662 18.2693 28.036 16.9536 26.429C16.6722 26.0897 16.2535 25.7455 15.7818 25.8663C15.4442 26.0038 15.1518 26.2331 14.9378 26.5283C13.7313 28.0343 12.5049 29.5255 11.2968 31.0266C11.0653 31.361 10.7478 31.6266 10.3779 31.7956C10.0079 31.9645 9.59923 32.0305 9.19493 31.9865C8.26316 31.9236 7.65577 31.1391 6.95074 30.631C5.95774 29.921 5.76079 28.362 6.54526 27.4269C8.20027 25.3433 9.88175 23.2696 11.55 21.1942C11.9075 20.7573 12.2335 20.2161 12.1061 19.6269C12.025 18.9997 11.4325 18.6041 10.8648 18.4568C9.25451 18.0513 7.63757 17.6823 6.0289 17.2768C5.50223 17.1415 5.04322 16.8183 4.73837 16.3681C4.43352 15.9178 4.30388 15.3716 4.37389 14.8323C4.4914 14.1885 4.65359 13.553 4.82737 12.9225C4.99989 12.4142 5.35205 11.9864 5.8177 11.7195C6.28334 11.4525 6.83044 11.3648 7.35622 11.4727C9.13204 11.8616 10.888 12.3465 12.6688 12.709C13.3308 12.9489 13.9282 12.0701 13.4731 11.5505C13.0163 11.1069 12.4189 10.8421 11.9588 10.4036C9.78742 8.51188 9.35712 4.95527 11.0353 2.60847C11.8401 1.44484 13.0261 0.598945 14.3883 0.216989Z"
    fill="#660099" />
</svg>